<?xml version="1.0" standalone="no"?>
<!DOCTYPE svg PUBLIC "-//W3C//DTD SVG 20010904//EN"
 "http://www.w3.org/TR/2001/REC-SVG-20010904/DTD/svg10.dtd">
<svg version="1.0" xmlns="http://www.w3.org/2000/svg"
 width="890.000000pt" height="890.000000pt" viewBox="0 0 890.000000 890.000000"
 preserveAspectRatio="xMidYMid meet">

<g transform="translate(0.000000,890.000000) scale(0.100000,-0.100000)"
fill="#000000" stroke="none">
<path d="M3965 7964 c-1052 -104 -1986 -667 -2572 -1551 -160 -241 -301 -534
-395 -818 -312 -946 -208 -1955 290 -2830 276 -484 715 -934 1196 -1225 861
-522 1890 -649 2846 -353 717 222 1341 673 1792 1293 191 263 357 586 465 905
361 1069 182 2257 -478 3160 -211 289 -480 559 -764 767 -594 435 -1328 672
-2070 667 -93 -1 -233 -7 -310 -15z m575 -644 c953 -86 1797 -639 2249 -1473
396 -731 449 -1614 145 -2382 -348 -878 -1082 -1508 -2009 -1725 -269 -63
-627 -85 -904 -56 -995 106 -1834 695 -2267 1591 -158 328 -243 643 -275 1015
-30 365 29 801 158 1160 101 284 302 635 491 860 184 220 451 451 686 595 522
320 1137 468 1726 415z"/>
<path d="M4160 6599 c-903 -59 -1674 -705 -1901 -1593 -57 -225 -75 -542 -44
-783 112 -856 732 -1557 1568 -1773 734 -189 1521 37 2046 586 304 317 496
710 567 1154 24 150 24 459 0 605 -73 453 -260 835 -564 1156 -171 180 -356
315 -593 433 -337 168 -697 240 -1079 215z m343 -1257 l149 -477 71 -1 c101
-1 624 -16 672 -19 22 -2 75 -3 118 -4 42 -1 77 -4 77 -8 -1 -5 -42 -35 -92
-68 -155 -102 -672 -456 -685 -468 -11 -12 4 -66 192 -673 41 -132 75 -243 75
-247 0 -3 -145 111 -322 254 -178 143 -347 278 -376 301 l-52 40 -233 -148
c-127 -82 -311 -199 -407 -261 -96 -62 -176 -111 -177 -109 -2 1 65 202 147
446 83 244 149 450 148 456 -2 7 -164 137 -361 288 -196 151 -354 277 -350
279 5 3 24 4 43 2 19 -2 152 -6 295 -11 143 -4 289 -8 325 -9 36 -1 107 -4
159 -5 l93 -3 164 442 c90 244 164 451 164 462 0 10 3 19 8 19 4 0 74 -215
155 -478z"/>
</g>
</svg>
